<svg xmlns="http://www.w3.org/2000/svg" viewBox="0 0 24 24" role="img" aria-label="SoundCloud">
  <path fill="#FF5500" d="M1.175 12.225c-.042 0-.083.006-.122.018a.554.554 0 0 0-.085.024l-.028.011-.025.01a.45.45 0 0 0-.12.086.504.504 0 0 0-.138.372l.5 3.508-.5 3.397c0 .286.228.514.514.514.285 0 .513-.228.513-.514l.566-3.397-.566-3.508a.514.514 0 0 0-.509-.521zm2.25-.88a.514.514 0 0 0-.514.514l-.514 3.874.514 3.635a.514.514 0 0 0 1.028 0l.586-3.635-.586-3.874a.514.514 0 0 0-.514-.514zm2.273-.437a.6.6 0 0 0-.6.6l-.461 3.711.461 3.665a.6.6 0 0 0 1.2 0l.522-3.665-.522-3.711a.6.6 0 0 0-.6-.6zm2.287-.303a.686.686 0 0 0-.686.685l-.408 4.014.408 3.682a.686.686 0 0 0 1.371 0l.461-3.682-.461-4.014a.686.686 0 0 0-.685-.685zm2.285-.164a.771.771 0 0 0-.771.771l-.358 4.178.358 3.648a.772.772 0 0 0 1.543 0l.405-3.648-.405-4.178a.771.771 0 0 0-.772-.771zm2.285-.063a.857.857 0 0 0-.857.857l-.307 4.241.307 3.554a.858.858 0 0 0 1.715 0l.348-3.554-.348-4.241a.857.857 0 0 0-.858-.857zm2.286.063a.942.942 0 0 0-.943.943l-.256 4.178.256 3.44a.944.944 0 0 0 1.886 0l.291-3.44-.291-4.178a.942.942 0 0 0-.943-.943zm2.286.164a1.028 1.028 0 0 0-1.028 1.029l-.204 4.014.204 3.313a1.028 1.028 0 0 0 2.057 0l.235-3.313-.235-4.014a1.028 1.028 0 0 0-1.029-1.029zm2.284-.164a1.114 1.114 0 0 0-1.114 1.114l-.152 4.178.152 3.188a1.114 1.114 0 0 0 2.229 0l.175-3.188-.175-4.178a1.114 1.114 0 0 0-1.115-1.114zm2.286-.5c-.617 0-1.2.12-1.731.337a4.6 4.6 0 0 0-4.542-3.888 4.594 4.594 0 0 0-1.714.33c-.205.08-.26.162-.262.232v8.986c.003.075.06.138.135.15h8.114a2.571 2.571 0 0 0 0-5.147z"/>
</svg>
